<?xml version="1.0" encoding="UTF-8" standalone="no"?><!-- Generator: Gravit.io --><svg xmlns="http://www.w3.org/2000/svg" xmlns:xlink="http://www.w3.org/1999/xlink" style="isolation:isolate" viewBox="0 0 165 20" width="165pt" height="20pt"><defs><clipPath id="_clipPath_4KRzc1arwh2HLgwgt4wNwHeDDjCMHuDw"><rect width="165" height="20"/></clipPath></defs><g clip-path="url(#_clipPath_4KRzc1arwh2HLgwgt4wNwHeDDjCMHuDw)"><path d=" M 131.783 13.943 L 131.783 13.943 L 131.783 13.943 Q 130.389 13.943 129.624 13.085 L 129.624 13.085 L 129.624 13.085 Q 128.859 12.227 128.859 10.656 L 128.859 10.656 L 128.859 10.656 Q 128.859 9.045 129.636 8.166 L 129.636 8.166 L 129.636 8.166 Q 130.412 7.287 131.848 7.287 L 131.848 7.287 L 131.848 7.287 Q 132.311 7.287 132.773 7.387 L 132.773 7.387 L 132.773 7.387 Q 133.236 7.486 133.5 7.621 L 133.5 7.621 L 133.201 8.447 L 133.201 8.447 Q 132.879 8.318 132.498 8.233 L 132.498 8.233 L 132.498 8.233 Q 132.117 8.148 131.824 8.148 L 131.824 8.148 L 131.824 8.148 Q 129.867 8.148 129.867 10.645 L 129.867 10.645 L 129.867 10.645 Q 129.867 11.828 130.345 12.461 L 130.345 12.461 L 130.345 12.461 Q 130.822 13.094 131.76 13.094 L 131.76 13.094 L 131.76 13.094 Q 132.563 13.094 133.406 12.748 L 133.406 12.748 L 133.406 13.609 L 133.406 13.609 Q 132.762 13.943 131.783 13.943 Z  M 140.473 10.609 L 140.473 10.609 L 140.473 10.609 Q 140.473 12.18 139.682 13.062 L 139.682 13.062 L 139.682 13.062 Q 138.891 13.943 137.496 13.943 L 137.496 13.943 L 137.496 13.943 Q 136.635 13.943 135.967 13.539 L 135.967 13.539 L 135.967 13.539 Q 135.299 13.135 134.936 12.379 L 134.936 12.379 L 134.936 12.379 Q 134.572 11.623 134.572 10.609 L 134.572 10.609 L 134.572 10.609 Q 134.572 9.039 135.357 8.163 L 135.357 8.163 L 135.357 8.163 Q 136.143 7.287 137.537 7.287 L 137.537 7.287 L 137.537 7.287 Q 138.885 7.287 139.679 8.184 L 139.679 8.184 L 139.679 8.184 Q 140.473 9.08 140.473 10.609 Z  M 135.58 10.609 L 135.58 10.609 L 135.58 10.609 Q 135.58 11.84 136.072 12.484 L 136.072 12.484 L 136.072 12.484 Q 136.564 13.129 137.52 13.129 L 137.52 13.129 L 137.52 13.129 Q 138.475 13.129 138.97 12.487 L 138.97 12.487 L 138.97 12.487 Q 139.465 11.846 139.465 10.609 L 139.465 10.609 L 139.465 10.609 Q 139.465 9.385 138.97 8.749 L 138.97 8.749 L 138.97 8.749 Q 138.475 8.113 137.508 8.113 L 137.508 8.113 L 137.508 8.113 Q 136.553 8.113 136.066 8.74 L 136.066 8.74 L 136.066 8.74 Q 135.58 9.367 135.58 10.609 Z  M 151.336 13.826 L 150.363 13.826 L 150.363 9.648 L 150.363 9.648 Q 150.363 8.881 150.035 8.497 L 150.035 8.497 L 150.035 8.497 Q 149.707 8.113 149.016 8.113 L 149.016 8.113 L 149.016 8.113 Q 148.107 8.113 147.674 8.635 L 147.674 8.635 L 147.674 8.635 Q 147.24 9.156 147.24 10.24 L 147.24 10.24 L 147.24 13.826 L 146.268 13.826 L 146.268 9.648 L 146.268 9.648 Q 146.268 8.881 145.939 8.497 L 145.939 8.497 L 145.939 8.497 Q 145.611 8.113 144.914 8.113 L 144.914 8.113 L 144.914 8.113 Q 144 8.113 143.575 8.661 L 143.575 8.661 L 143.575 8.661 Q 143.15 9.209 143.15 10.457 L 143.15 10.457 L 143.15 13.826 L 142.178 13.826 L 142.178 7.404 L 142.969 7.404 L 143.127 8.283 L 143.174 8.283 L 143.174 8.283 Q 143.449 7.814 143.95 7.551 L 143.95 7.551 L 143.95 7.551 Q 144.451 7.287 145.072 7.287 L 145.072 7.287 L 145.072 7.287 Q 146.578 7.287 147.041 8.377 L 147.041 8.377 L 147.088 8.377 L 147.088 8.377 Q 147.375 7.873 147.92 7.58 L 147.92 7.58 L 147.92 7.58 Q 148.465 7.287 149.162 7.287 L 149.162 7.287 L 149.162 7.287 Q 150.252 7.287 150.794 7.847 L 150.794 7.847 L 150.794 7.847 Q 151.336 8.406 151.336 9.637 L 151.336 9.637 L 151.336 13.826 L 151.336 13.826 Z  M 14.701 13.826 L 13.98 13.826 L 13.787 12.912 L 13.74 12.912 L 13.74 12.912 Q 13.26 13.516 12.782 13.729 L 12.782 13.729 L 12.782 13.729 Q 12.305 13.943 11.59 13.943 L 11.59 13.943 L 11.59 13.943 Q 10.635 13.943 10.093 13.451 L 10.093 13.451 L 10.093 13.451 Q 9.551 12.959 9.551 12.051 L 9.551 12.051 L 9.551 12.051 Q 9.551 10.105 12.662 10.012 L 12.662 10.012 L 13.752 9.977 L 13.752 9.578 L 13.752 9.578 Q 13.752 8.822 13.427 8.462 L 13.427 8.462 L 13.427 8.462 Q 13.102 8.102 12.387 8.102 L 12.387 8.102 L 12.387 8.102 Q 11.584 8.102 10.57 8.594 L 10.57 8.594 L 10.271 7.85 L 10.271 7.85 Q 10.746 7.592 11.312 7.445 L 11.312 7.445 L 11.312 7.445 Q 11.877 7.299 12.445 7.299 L 12.445 7.299 L 12.445 7.299 Q 13.594 7.299 14.147 7.809 L 14.147 7.809 L 14.147 7.809 Q 14.701 8.318 14.701 9.443 L 14.701 9.443 L 14.701 13.826 L 14.701 13.826 Z  M 11.783 13.141 L 11.783 13.141 L 11.783 13.141 Q 12.691 13.141 13.21 12.643 L 13.21 12.643 L 13.21 12.643 Q 13.729 12.145 13.729 11.248 L 13.729 11.248 L 13.729 10.668 L 12.756 10.709 L 12.756 10.709 Q 11.596 10.75 11.083 11.069 L 11.083 11.069 L 11.083 11.069 Q 10.57 11.389 10.57 12.063 L 10.57 12.063 L 10.57 12.063 Q 10.57 12.59 10.89 12.865 L 10.89 12.865 L 10.89 12.865 Q 11.209 13.141 11.783 13.141 Z  M 17.678 4.709 L 17.678 13.826 L 16.705 13.826 L 16.705 4.709 L 17.678 4.709 L 17.678 4.709 Z  M 22.453 13.943 L 22.453 13.943 L 22.453 13.943 Q 21.029 13.943 20.206 13.076 L 20.206 13.076 L 20.206 13.076 Q 19.383 12.209 19.383 10.668 L 19.383 10.668 L 19.383 10.668 Q 19.383 9.115 20.147 8.201 L 20.147 8.201 L 20.147 8.201 Q 20.912 7.287 22.201 7.287 L 22.201 7.287 L 22.201 7.287 Q 23.408 7.287 24.111 8.081 L 24.111 8.081 L 24.111 8.081 Q 24.814 8.875 24.814 10.176 L 24.814 10.176 L 24.814 10.791 L 20.391 10.791 L 20.391 10.791 Q 20.42 11.922 20.962 12.508 L 20.962 12.508 L 20.962 12.508 Q 21.504 13.094 22.488 13.094 L 22.488 13.094 L 22.488 13.094 Q 23.525 13.094 24.539 12.66 L 24.539 12.66 L 24.539 13.527 L 24.539 13.527 Q 24.023 13.75 23.563 13.847 L 23.563 13.847 L 23.563 13.847 Q 23.104 13.943 22.453 13.943 Z  M 22.189 8.102 L 22.189 8.102 L 22.189 8.102 Q 21.416 8.102 20.956 8.605 L 20.956 8.605 L 20.956 8.605 Q 20.496 9.109 20.414 10 L 20.414 10 L 23.771 10 L 23.771 10 Q 23.771 9.08 23.361 8.591 L 23.361 8.591 L 23.361 8.591 Q 22.951 8.102 22.189 8.102 Z  M 25.67 13.826 L 28.02 10.539 L 25.787 7.404 L 26.895 7.404 L 28.588 9.865 L 30.275 7.404 L 31.371 7.404 L 29.139 10.539 L 31.488 13.826 L 30.387 13.826 L 28.588 11.225 L 26.771 13.826 L 25.67 13.826 L 25.67 13.826 Z  M 35.654 7.404 L 35.654 8.16 L 34.02 8.16 L 34.02 13.826 L 33.047 13.826 L 33.047 8.16 L 31.898 8.16 L 31.898 7.721 L 33.047 7.369 L 33.047 7.012 L 33.047 7.012 Q 33.047 4.645 35.115 4.645 L 35.115 4.645 L 35.115 4.645 Q 35.625 4.645 36.311 4.85 L 36.311 4.85 L 36.059 5.629 L 36.059 5.629 Q 35.496 5.447 35.098 5.447 L 35.098 5.447 L 35.098 5.447 Q 34.547 5.447 34.283 5.813 L 34.283 5.813 L 34.283 5.813 Q 34.02 6.18 34.02 6.988 L 34.02 6.988 L 34.02 7.404 L 35.654 7.404 L 35.654 7.404 Z  M 37.799 4.709 L 37.799 13.826 L 36.826 13.826 L 36.826 4.709 L 37.799 4.709 L 37.799 4.709 Z  M 42.574 13.943 L 42.574 13.943 L 42.574 13.943 Q 41.15 13.943 40.327 13.076 L 40.327 13.076 L 40.327 13.076 Q 39.504 12.209 39.504 10.668 L 39.504 10.668 L 39.504 10.668 Q 39.504 9.115 40.269 8.201 L 40.269 8.201 L 40.269 8.201 Q 41.033 7.287 42.322 7.287 L 42.322 7.287 L 42.322 7.287 Q 43.529 7.287 44.232 8.081 L 44.232 8.081 L 44.232 8.081 Q 44.936 8.875 44.936 10.176 L 44.936 10.176 L 44.936 10.791 L 40.512 10.791 L 40.512 10.791 Q 40.541 11.922 41.083 12.508 L 41.083 12.508 L 41.083 12.508 Q 41.625 13.094 42.609 13.094 L 42.609 13.094 L 42.609 13.094 Q 43.646 13.094 44.66 12.66 L 44.66 12.66 L 44.66 13.527 L 44.66 13.527 Q 44.145 13.75 43.685 13.847 L 43.685 13.847 L 43.685 13.847 Q 43.225 13.943 42.574 13.943 Z  M 42.311 8.102 L 42.311 8.102 L 42.311 8.102 Q 41.537 8.102 41.077 8.605 L 41.077 8.605 L 41.077 8.605 Q 40.617 9.109 40.535 10 L 40.535 10 L 43.893 10 L 43.893 10 Q 43.893 9.08 43.482 8.591 L 43.482 8.591 L 43.482 8.591 Q 43.072 8.102 42.311 8.102 Z  M 51.961 13.826 L 50.988 13.826 L 50.988 9.672 L 50.988 9.672 Q 50.988 8.887 50.631 8.5 L 50.631 8.5 L 50.631 8.5 Q 50.273 8.113 49.512 8.113 L 49.512 8.113 L 49.512 8.113 Q 48.504 8.113 48.035 8.658 L 48.035 8.658 L 48.035 8.658 Q 47.566 9.203 47.566 10.457 L 47.566 10.457 L 47.566 13.826 L 46.594 13.826 L 46.594 7.404 L 47.385 7.404 L 47.543 8.283 L 47.59 8.283 L 47.59 8.283 Q 47.889 7.809 48.428 7.548 L 48.428 7.548 L 48.428 7.548 Q 48.967 7.287 49.629 7.287 L 49.629 7.287 L 49.629 7.287 Q 50.789 7.287 51.375 7.847 L 51.375 7.847 L 51.375 7.847 Q 51.961 8.406 51.961 9.637 L 51.961 9.637 L 51.961 13.826 L 51.961 13.826 Z  M 59.326 13.826 L 58.354 13.826 L 58.354 9.672 L 58.354 9.672 Q 58.354 8.887 57.996 8.5 L 57.996 8.5 L 57.996 8.5 Q 57.639 8.113 56.877 8.113 L 56.877 8.113 L 56.877 8.113 Q 55.869 8.113 55.4 8.658 L 55.4 8.658 L 55.4 8.658 Q 54.932 9.203 54.932 10.457 L 54.932 10.457 L 54.932 13.826 L 53.959 13.826 L 53.959 7.404 L 54.75 7.404 L 54.908 8.283 L 54.955 8.283 L 54.955 8.283 Q 55.254 7.809 55.793 7.548 L 55.793 7.548 L 55.793 7.548 Q 56.332 7.287 56.994 7.287 L 56.994 7.287 L 56.994 7.287 Q 58.154 7.287 58.74 7.847 L 58.74 7.847 L 58.74 7.847 Q 59.326 8.406 59.326 9.637 L 59.326 9.637 L 59.326 13.826 L 59.326 13.826 Z  M 62.297 7.404 L 62.297 13.826 L 61.324 13.826 L 61.324 7.404 L 62.297 7.404 L 62.297 7.404 Z  M 61.242 5.664 L 61.242 5.664 L 61.242 5.664 Q 61.242 5.33 61.406 5.175 L 61.406 5.175 L 61.406 5.175 Q 61.57 5.02 61.816 5.02 L 61.816 5.02 L 61.816 5.02 Q 62.051 5.02 62.221 5.178 L 62.221 5.178 L 62.221 5.178 Q 62.391 5.336 62.391 5.664 L 62.391 5.664 L 62.391 5.664 Q 62.391 5.992 62.221 6.153 L 62.221 6.153 L 62.221 6.153 Q 62.051 6.314 61.816 6.314 L 61.816 6.314 L 61.816 6.314 Q 61.57 6.314 61.406 6.153 L 61.406 6.153 L 61.406 6.153 Q 61.242 5.992 61.242 5.664 Z  M 65.273 10.539 L 65.32 10.539 L 65.32 10.539 Q 65.572 10.182 66.088 9.602 L 66.088 9.602 L 68.162 7.404 L 69.316 7.404 L 66.715 10.141 L 69.498 13.826 L 68.32 13.826 L 66.053 10.791 L 65.32 11.424 L 65.32 13.826 L 64.359 13.826 L 64.359 4.709 L 65.32 4.709 L 65.32 9.543 L 65.32 9.543 Q 65.32 9.865 65.273 10.539 L 65.273 10.539 L 65.273 10.539 Z  M 73.371 13.943 L 73.371 13.943 L 73.371 13.943 Q 71.947 13.943 71.124 13.076 L 71.124 13.076 L 71.124 13.076 Q 70.301 12.209 70.301 10.668 L 70.301 10.668 L 70.301 10.668 Q 70.301 9.115 71.065 8.201 L 71.065 8.201 L 71.065 8.201 Q 71.83 7.287 73.119 7.287 L 73.119 7.287 L 73.119 7.287 Q 74.326 7.287 75.029 8.081 L 75.029 8.081 L 75.029 8.081 Q 75.732 8.875 75.732 10.176 L 75.732 10.176 L 75.732 10.791 L 71.309 10.791 L 71.309 10.791 Q 71.338 11.922 71.88 12.508 L 71.88 12.508 L 71.88 12.508 Q 72.422 13.094 73.406 13.094 L 73.406 13.094 L 73.406 13.094 Q 74.443 13.094 75.457 12.66 L 75.457 12.66 L 75.457 13.527 L 75.457 13.527 Q 74.941 13.75 74.481 13.847 L 74.481 13.847 L 74.481 13.847 Q 74.021 13.943 73.371 13.943 Z  M 73.107 8.102 L 73.107 8.102 L 73.107 8.102 Q 72.334 8.102 71.874 8.605 L 71.874 8.605 L 71.874 8.605 Q 71.414 9.109 71.332 10 L 71.332 10 L 74.689 10 L 74.689 10 Q 74.689 9.08 74.279 8.591 L 74.279 8.591 L 74.279 8.591 Q 73.869 8.102 73.107 8.102 Z  M 82.758 13.826 L 81.785 13.826 L 81.785 9.672 L 81.785 9.672 Q 81.785 8.887 81.428 8.5 L 81.428 8.5 L 81.428 8.5 Q 81.07 8.113 80.309 8.113 L 80.309 8.113 L 80.309 8.113 Q 79.301 8.113 78.832 8.658 L 78.832 8.658 L 78.832 8.658 Q 78.363 9.203 78.363 10.457 L 78.363 10.457 L 78.363 13.826 L 77.391 13.826 L 77.391 7.404 L 78.182 7.404 L 78.34 8.283 L 78.387 8.283 L 78.387 8.283 Q 78.686 7.809 79.225 7.548 L 79.225 7.548 L 79.225 7.548 Q 79.764 7.287 80.426 7.287 L 80.426 7.287 L 80.426 7.287 Q 81.586 7.287 82.172 7.847 L 82.172 7.847 L 82.172 7.847 Q 82.758 8.406 82.758 9.637 L 82.758 9.637 L 82.758 13.826 L 82.758 13.826 Z  M 93.803 9.555 L 93.803 9.555 L 93.803 9.555 Q 93.803 10.387 93.545 11.078 L 93.545 11.078 L 93.545 11.078 Q 93.287 11.77 92.818 12.15 L 92.818 12.15 L 92.818 12.15 Q 92.35 12.531 91.74 12.531 L 91.74 12.531 L 91.74 12.531 Q 91.236 12.531 90.891 12.227 L 90.891 12.227 L 90.891 12.227 Q 90.545 11.922 90.48 11.447 L 90.48 11.447 L 90.434 11.447 L 90.434 11.447 Q 90.199 11.957 89.763 12.244 L 89.763 12.244 L 89.763 12.244 Q 89.326 12.531 88.729 12.531 L 88.729 12.531 L 88.729 12.531 Q 87.85 12.531 87.354 11.931 L 87.354 11.931 L 87.354 11.931 Q 86.859 11.33 86.859 10.299 L 86.859 10.299 L 86.859 10.299 Q 86.859 9.104 87.551 8.356 L 87.551 8.356 L 87.551 8.356 Q 88.242 7.609 89.367 7.609 L 89.367 7.609 L 89.367 7.609 Q 89.766 7.609 90.27 7.683 L 90.27 7.683 L 90.27 7.683 Q 90.773 7.756 91.178 7.885 L 91.178 7.885 L 91.031 10.639 L 91.031 10.768 L 91.031 10.768 Q 91.031 11.811 91.811 11.811 L 91.811 11.811 L 91.811 11.811 Q 92.344 11.811 92.678 11.181 L 92.678 11.181 L 92.678 11.181 Q 93.012 10.551 93.012 9.543 L 93.012 9.543 L 93.012 9.543 Q 93.012 8.482 92.578 7.686 L 92.578 7.686 L 92.578 7.686 Q 92.145 6.889 91.345 6.458 L 91.345 6.458 L 91.345 6.458 Q 90.545 6.027 89.508 6.027 L 89.508 6.027 L 89.508 6.027 Q 88.201 6.027 87.234 6.569 L 87.234 6.569 L 87.234 6.569 Q 86.268 7.111 85.758 8.116 L 85.758 8.116 L 85.758 8.116 Q 85.248 9.121 85.248 10.439 L 85.248 10.439 L 85.248 10.439 Q 85.248 12.227 86.191 13.188 L 86.191 13.188 L 86.191 13.188 Q 87.135 14.148 88.91 14.148 L 88.91 14.148 L 88.91 14.148 Q 90.141 14.148 91.465 13.645 L 91.465 13.645 L 91.465 14.424 L 91.465 14.424 Q 90.34 14.916 88.91 14.916 L 88.91 14.916 L 88.91 14.916 Q 86.783 14.916 85.608 13.747 L 85.608 13.747 L 85.608 13.747 Q 84.434 12.578 84.434 10.48 L 84.434 10.48 L 84.434 10.48 Q 84.434 8.957 85.061 7.768 L 85.061 7.768 L 85.061 7.768 Q 85.688 6.578 86.848 5.925 L 86.848 5.925 L 86.848 5.925 Q 88.008 5.271 89.508 5.271 L 89.508 5.271 L 89.508 5.271 Q 90.768 5.271 91.749 5.802 L 91.749 5.802 L 91.749 5.802 Q 92.73 6.332 93.267 7.308 L 93.267 7.308 L 93.267 7.308 Q 93.803 8.283 93.803 9.555 Z  M 87.744 10.322 L 87.744 10.322 L 87.744 10.322 Q 87.744 11.811 88.887 11.811 L 88.887 11.811 L 88.887 11.811 Q 90.1 11.811 90.205 9.977 L 90.205 9.977 L 90.287 8.447 L 90.287 8.447 Q 89.865 8.33 89.367 8.33 L 89.367 8.33 L 89.367 8.33 Q 88.605 8.33 88.175 8.857 L 88.175 8.857 L 88.175 8.857 Q 87.744 9.385 87.744 10.322 Z  M 98.578 7.404 L 100.799 7.404 L 100.799 8.02 L 99.609 8.16 L 99.609 8.16 Q 99.773 8.365 99.902 8.696 L 99.902 8.696 L 99.902 8.696 Q 100.031 9.027 100.031 9.443 L 100.031 9.443 L 100.031 9.443 Q 100.031 10.387 99.387 10.949 L 99.387 10.949 L 99.387 10.949 Q 98.742 11.512 97.617 11.512 L 97.617 11.512 L 97.617 11.512 Q 97.33 11.512 97.078 11.465 L 97.078 11.465 L 97.078 11.465 Q 96.457 11.793 96.457 12.291 L 96.457 12.291 L 96.457 12.291 Q 96.457 12.555 96.674 12.681 L 96.674 12.681 L 96.674 12.681 Q 96.891 12.807 97.418 12.807 L 97.418 12.807 L 98.555 12.807 L 98.555 12.807 Q 99.598 12.807 100.157 13.246 L 100.157 13.246 L 100.157 13.246 Q 100.717 13.686 100.717 14.523 L 100.717 14.523 L 100.717 14.523 Q 100.717 15.59 99.861 16.149 L 99.861 16.149 L 99.861 16.149 Q 99.006 16.709 97.365 16.709 L 97.365 16.709 L 97.365 16.709 Q 96.105 16.709 95.423 16.24 L 95.423 16.24 L 95.423 16.24 Q 94.74 15.771 94.74 14.916 L 94.74 14.916 L 94.74 14.916 Q 94.74 14.33 95.115 13.902 L 95.115 13.902 L 95.115 13.902 Q 95.49 13.475 96.17 13.322 L 96.17 13.322 L 96.17 13.322 Q 95.924 13.211 95.757 12.977 L 95.757 12.977 L 95.757 12.977 Q 95.59 12.742 95.59 12.432 L 95.59 12.432 L 95.59 12.432 Q 95.59 12.08 95.777 11.816 L 95.777 11.816 L 95.777 11.816 Q 95.965 11.553 96.369 11.307 L 96.369 11.307 L 96.369 11.307 Q 95.871 11.102 95.558 10.609 L 95.558 10.609 L 95.558 10.609 Q 95.244 10.117 95.244 9.484 L 95.244 9.484 L 95.244 9.484 Q 95.244 8.43 95.877 7.858 L 95.877 7.858 L 95.877 7.858 Q 96.51 7.287 97.67 7.287 L 97.67 7.287 L 97.67 7.287 Q 98.174 7.287 98.578 7.404 L 98.578 7.404 L 98.578 7.404 Z  M 95.678 14.904 L 95.678 14.904 L 95.678 14.904 Q 95.678 15.426 96.117 15.695 L 96.117 15.695 L 96.117 15.695 Q 96.557 15.965 97.377 15.965 L 97.377 15.965 L 97.377 15.965 Q 98.602 15.965 99.19 15.599 L 99.19 15.599 L 99.19 15.599 Q 99.779 15.232 99.779 14.605 L 99.779 14.605 L 99.779 14.605 Q 99.779 14.084 99.457 13.882 L 99.457 13.882 L 99.457 13.882 Q 99.135 13.68 98.244 13.68 L 98.244 13.68 L 97.078 13.68 L 97.078 13.68 Q 96.416 13.68 96.047 13.996 L 96.047 13.996 L 96.047 13.996 Q 95.678 14.313 95.678 14.904 Z  M 96.205 9.461 L 96.205 9.461 L 96.205 9.461 Q 96.205 10.135 96.586 10.48 L 96.586 10.48 L 96.586 10.48 Q 96.967 10.826 97.646 10.826 L 97.646 10.826 L 97.646 10.826 Q 99.07 10.826 99.07 9.443 L 99.07 9.443 L 99.07 9.443 Q 99.07 7.996 97.629 7.996 L 97.629 7.996 L 97.629 7.996 Q 96.943 7.996 96.574 8.365 L 96.574 8.365 L 96.574 8.365 Q 96.205 8.734 96.205 9.461 Z  M 111.275 13.826 L 110.303 13.826 L 110.303 9.648 L 110.303 9.648 Q 110.303 8.881 109.975 8.497 L 109.975 8.497 L 109.975 8.497 Q 109.646 8.113 108.955 8.113 L 108.955 8.113 L 108.955 8.113 Q 108.047 8.113 107.613 8.635 L 107.613 8.635 L 107.613 8.635 Q 107.18 9.156 107.18 10.24 L 107.18 10.24 L 107.18 13.826 L 106.207 13.826 L 106.207 9.648 L 106.207 9.648 Q 106.207 8.881 105.879 8.497 L 105.879 8.497 L 105.879 8.497 Q 105.551 8.113 104.854 8.113 L 104.854 8.113 L 104.854 8.113 Q 103.939 8.113 103.515 8.661 L 103.515 8.661 L 103.515 8.661 Q 103.09 9.209 103.09 10.457 L 103.09 10.457 L 103.09 13.826 L 102.117 13.826 L 102.117 7.404 L 102.908 7.404 L 103.066 8.283 L 103.113 8.283 L 103.113 8.283 Q 103.389 7.814 103.89 7.551 L 103.89 7.551 L 103.89 7.551 Q 104.391 7.287 105.012 7.287 L 105.012 7.287 L 105.012 7.287 Q 106.518 7.287 106.98 8.377 L 106.98 8.377 L 107.027 8.377 L 107.027 8.377 Q 107.314 7.873 107.859 7.58 L 107.859 7.58 L 107.859 7.58 Q 108.404 7.287 109.102 7.287 L 109.102 7.287 L 109.102 7.287 Q 110.191 7.287 110.733 7.847 L 110.733 7.847 L 110.733 7.847 Q 111.275 8.406 111.275 9.637 L 111.275 9.637 L 111.275 13.826 L 111.275 13.826 Z  M 117.949 13.826 L 117.229 13.826 L 117.035 12.912 L 116.988 12.912 L 116.988 12.912 Q 116.508 13.516 116.03 13.729 L 116.03 13.729 L 116.03 13.729 Q 115.553 13.943 114.838 13.943 L 114.838 13.943 L 114.838 13.943 Q 113.883 13.943 113.341 13.451 L 113.341 13.451 L 113.341 13.451 Q 112.799 12.959 112.799 12.051 L 112.799 12.051 L 112.799 12.051 Q 112.799 10.105 115.91 10.012 L 115.91 10.012 L 117 9.977 L 117 9.578 L 117 9.578 Q 117 8.822 116.675 8.462 L 116.675 8.462 L 116.675 8.462 Q 116.35 8.102 115.635 8.102 L 115.635 8.102 L 115.635 8.102 Q 114.832 8.102 113.818 8.594 L 113.818 8.594 L 113.52 7.85 L 113.52 7.85 Q 113.994 7.592 114.56 7.445 L 114.56 7.445 L 114.56 7.445 Q 115.125 7.299 115.693 7.299 L 115.693 7.299 L 115.693 7.299 Q 116.842 7.299 117.396 7.809 L 117.396 7.809 L 117.396 7.809 Q 117.949 8.318 117.949 9.443 L 117.949 9.443 L 117.949 13.826 L 117.949 13.826 Z  M 115.031 13.141 L 115.031 13.141 L 115.031 13.141 Q 115.939 13.141 116.458 12.643 L 116.458 12.643 L 116.458 12.643 Q 116.977 12.145 116.977 11.248 L 116.977 11.248 L 116.977 10.668 L 116.004 10.709 L 116.004 10.709 Q 114.844 10.75 114.331 11.069 L 114.331 11.069 L 114.331 11.069 Q 113.818 11.389 113.818 12.063 L 113.818 12.063 L 113.818 12.063 Q 113.818 12.59 114.138 12.865 L 114.138 12.865 L 114.138 12.865 Q 114.457 13.141 115.031 13.141 Z  M 120.926 7.404 L 120.926 13.826 L 119.953 13.826 L 119.953 7.404 L 120.926 7.404 L 120.926 7.404 Z  M 119.871 5.664 L 119.871 5.664 L 119.871 5.664 Q 119.871 5.33 120.035 5.175 L 120.035 5.175 L 120.035 5.175 Q 120.199 5.02 120.445 5.02 L 120.445 5.02 L 120.445 5.02 Q 120.68 5.02 120.85 5.178 L 120.85 5.178 L 120.85 5.178 Q 121.02 5.336 121.02 5.664 L 121.02 5.664 L 121.02 5.664 Q 121.02 5.992 120.85 6.153 L 120.85 6.153 L 120.85 6.153 Q 120.68 6.314 120.445 6.314 L 120.445 6.314 L 120.445 6.314 Q 120.199 6.314 120.035 6.153 L 120.035 6.153 L 120.035 6.153 Q 119.871 5.992 119.871 5.664 Z  M 123.961 4.709 L 123.961 13.826 L 122.988 13.826 L 122.988 4.709 L 123.961 4.709 L 123.961 4.709 Z  M 125.883 13.205 L 125.883 13.205 L 125.883 13.205 Q 125.883 12.813 126.062 12.61 L 126.062 12.61 L 126.062 12.61 Q 126.24 12.408 126.574 12.408 L 126.574 12.408 L 126.574 12.408 Q 126.914 12.408 127.104 12.61 L 127.104 12.61 L 127.104 12.61 Q 127.295 12.813 127.295 13.205 L 127.295 13.205 L 127.295 13.205 Q 127.295 13.586 127.102 13.791 L 127.102 13.791 L 127.102 13.791 Q 126.908 13.996 126.574 13.996 L 126.574 13.996 L 126.574 13.996 Q 126.275 13.996 126.079 13.812 L 126.079 13.812 L 126.079 13.812 Q 125.883 13.627 125.883 13.205 Z " fill="rgb(0,0,0)"/></g></svg>