<?xml version="1.0" encoding="UTF-8" standalone="no"?><!-- Generator: Gravit.io --><svg xmlns="http://www.w3.org/2000/svg" xmlns:xlink="http://www.w3.org/1999/xlink" style="isolation:isolate" viewBox="550 267.9 438 114.14" width="438pt" height="114.14pt"><defs><clipPath id="_clipPath_fEDJ0qvsfguNUlKqr1d3aqe5iUkYwW7k"><rect x="550" y="267.9" width="438" height="114.14"/></clipPath></defs><g clip-path="url(#_clipPath_fEDJ0qvsfguNUlKqr1d3aqe5iUkYwW7k)"><rect x="550" y="267.9" width="438" height="114.14" style="fill:rgb(45,28,83)" fill-opacity="0"/><g><path d=" M 644.17 379.39 L 644.17 379.39 L 644.17 379.39 Q 641.53 379.39 639.61 377.83 L 639.61 377.83 L 639.61 377.83 Q 637.69 376.27 637.69 373.45 L 637.69 373.45 L 637.69 354.61 L 632.77 354.61 L 632.77 354.25 L 637.87 351.79 L 642.13 345.19 L 642.49 345.19 L 642.49 351.79 L 650.41 351.79 L 650.41 354.61 L 642.49 354.61 L 642.49 372.43 L 642.49 372.43 Q 642.49 373.99 643.87 374.71 L 643.87 374.71 L 643.87 374.71 Q 645.25 375.43 647.11 375.43 L 647.11 375.43 L 647.11 375.43 Q 648.25 375.43 649.24 375.31 L 649.24 375.31 L 649.24 375.31 Q 650.23 375.19 650.95 375.01 L 650.95 375.01 L 651.13 375.01 L 651.13 375.61 L 651.13 375.61 Q 650.53 376.99 648.76 378.19 L 648.76 378.19 L 648.76 378.19 Q 646.99 379.39 644.17 379.39 Z  M 669.13 379.39 L 669.13 379.39 L 669.13 379.39 Q 665.17 379.39 662.2 377.53 L 662.2 377.53 L 662.2 377.53 Q 659.23 375.67 657.58 372.49 L 657.58 372.49 L 657.58 372.49 Q 655.93 369.31 655.93 365.29 L 655.93 365.29 L 655.93 365.29 Q 655.93 361.27 657.58 358.09 L 657.58 358.09 L 657.58 358.09 Q 659.23 354.91 662.2 353.05 L 662.2 353.05 L 662.2 353.05 Q 665.17 351.19 669.13 351.19 L 669.13 351.19 L 669.13 351.19 Q 673.09 351.19 676.06 353.05 L 676.06 353.05 L 676.06 353.05 Q 679.03 354.91 680.68 358.09 L 680.68 358.09 L 680.68 358.09 Q 682.33 361.27 682.33 365.29 L 682.33 365.29 L 682.33 365.29 Q 682.33 369.31 680.68 372.49 L 680.68 372.49 L 680.68 372.49 Q 679.03 375.67 676.06 377.53 L 676.06 377.53 L 676.06 377.53 Q 673.09 379.39 669.13 379.39 Z  M 669.97 376.81 L 669.97 376.81 L 669.97 376.81 Q 672.37 376.81 673.93 375.31 L 673.93 375.31 L 673.93 375.31 Q 675.49 373.81 676.21 371.44 L 676.21 371.44 L 676.21 371.44 Q 676.93 369.07 676.93 366.49 L 676.93 366.49 L 676.93 366.49 Q 676.93 363.31 676.06 360.37 L 676.06 360.37 L 676.06 360.37 Q 675.19 357.43 673.3 355.57 L 673.3 355.57 L 673.3 355.57 Q 671.41 353.71 668.41 353.71 L 668.41 353.71 L 668.41 353.71 Q 665.95 353.71 664.39 355.21 L 664.39 355.21 L 664.39 355.21 Q 662.83 356.71 662.08 359.05 L 662.08 359.05 L 662.08 359.05 Q 661.33 361.39 661.33 364.03 L 661.33 364.03 L 661.33 364.03 Q 661.33 367.21 662.23 370.15 L 662.23 370.15 L 662.23 370.15 Q 663.13 373.09 665.05 374.95 L 665.05 374.95 L 665.05 374.95 Q 666.97 376.81 669.97 376.81 Z  M 563.2 379.39 L 563.2 379.39 L 563.2 379.39 Q 559.24 379.39 556.27 377.53 L 556.27 377.53 L 556.27 377.53 Q 553.3 375.67 551.65 372.49 L 551.65 372.49 L 551.65 372.49 Q 550 369.31 550 365.29 L 550 365.29 L 550 365.29 Q 550 361.27 551.65 358.09 L 551.65 358.09 L 551.65 358.09 Q 553.3 354.91 556.27 353.05 L 556.27 353.05 L 556.27 353.05 Q 559.24 351.19 563.2 351.19 L 563.2 351.19 L 563.2 351.19 Q 567.16 351.19 570.13 353.05 L 570.13 353.05 L 570.13 353.05 Q 573.1 354.91 574.75 358.09 L 574.75 358.09 L 574.75 358.09 Q 576.4 361.27 576.4 365.29 L 576.4 365.29 L 576.4 365.29 Q 576.4 369.31 574.75 372.49 L 574.75 372.49 L 574.75 372.49 Q 573.1 375.67 570.13 377.53 L 570.13 377.53 L 570.13 377.53 Q 567.16 379.39 563.2 379.39 Z  M 564.04 376.81 L 564.04 376.81 L 564.04 376.81 Q 566.44 376.81 568 375.31 L 568 375.31 L 568 375.31 Q 569.56 373.81 570.28 371.44 L 570.28 371.44 L 570.28 371.44 Q 571 369.07 571 366.49 L 571 366.49 L 571 366.49 Q 571 363.31 570.13 360.37 L 570.13 360.37 L 570.13 360.37 Q 569.26 357.43 567.37 355.57 L 567.37 355.57 L 567.37 355.57 Q 565.48 353.71 562.48 353.71 L 562.48 353.71 L 562.48 353.71 Q 560.02 353.71 558.46 355.21 L 558.46 355.21 L 558.46 355.21 Q 556.9 356.71 556.15 359.05 L 556.15 359.05 L 556.15 359.05 Q 555.4 361.39 555.4 364.03 L 555.4 364.03 L 555.4 364.03 Q 555.4 367.21 556.3 370.15 L 556.3 370.15 L 556.3 370.15 Q 557.2 373.09 559.12 374.95 L 559.12 374.95 L 559.12 374.95 Q 561.04 376.81 564.04 376.81 Z  M 595.48 378.79 L 582.64 378.79 L 582.64 377.83 L 586.42 375.91 L 586.42 354.61 L 581.74 354.61 L 581.74 351.79 L 586.42 351.79 L 586.42 349.39 L 586.42 349.39 Q 586.42 348.19 587.02 346.27 L 587.02 346.27 L 587.02 346.27 Q 587.62 344.35 588.76 342.22 L 588.76 342.22 L 588.76 342.22 Q 589.9 340.09 591.52 338.17 L 591.52 338.17 L 591.52 338.17 Q 593.14 336.25 595.24 335.02 L 595.24 335.02 L 595.24 335.02 Q 597.34 333.79 599.86 333.79 L 599.86 333.79 L 599.86 333.79 Q 600.64 333.79 601.24 333.97 L 601.24 333.97 L 601.24 333.97 Q 601.84 334.15 602.14 334.27 L 602.14 334.27 L 602.14 334.27 Q 602.92 334.57 602.92 335.17 L 602.92 335.17 L 602.92 335.17 Q 602.92 335.53 602.62 336.25 L 602.62 336.25 L 601.42 339.37 L 601 339.37 L 599.86 338.95 L 599.86 338.95 Q 599.08 338.71 598.24 338.5 L 598.24 338.5 L 598.24 338.5 Q 597.4 338.29 596.56 338.29 L 596.56 338.29 L 596.56 338.29 Q 593.92 338.29 592.57 340.6 L 592.57 340.6 L 592.57 340.6 Q 591.22 342.91 591.22 346.99 L 591.22 346.99 L 591.22 351.79 L 606.94 351.79 L 606.94 349.39 L 606.94 349.39 Q 606.94 348.19 607.54 346.27 L 607.54 346.27 L 607.54 346.27 Q 608.14 344.35 609.31 342.22 L 609.31 342.22 L 609.31 342.22 Q 610.48 340.09 612.16 338.17 L 612.16 338.17 L 612.16 338.17 Q 613.84 336.25 615.97 335.02 L 615.97 335.02 L 615.97 335.02 Q 618.1 333.79 620.68 333.79 L 620.68 333.79 L 620.68 333.79 Q 621.22 333.79 621.82 333.97 L 621.82 333.97 L 621.82 333.97 Q 622.42 334.15 622.84 334.33 L 622.84 334.33 L 622.84 334.33 Q 624.64 334.99 624.64 336.01 L 624.64 336.01 L 624.64 336.01 Q 624.64 336.55 624.4 337.09 L 624.4 337.09 L 623.2 340.03 L 622.78 340.03 L 621.16 339.37 L 621.16 339.37 Q 619.48 338.71 617.26 338.71 L 617.26 338.71 L 617.26 338.71 Q 613.96 338.71 612.85 340.78 L 612.85 340.78 L 612.85 340.78 Q 611.74 342.85 611.74 346.99 L 611.74 346.99 L 611.74 351.79 L 619.66 351.79 L 619.66 354.61 L 611.74 354.61 L 611.74 376.03 L 616 377.83 L 616 378.79 L 603.16 378.79 L 603.16 377.83 L 606.94 375.91 L 606.94 354.61 L 591.22 354.61 L 591.22 376.03 L 595.48 377.83 L 595.48 378.79 L 595.48 378.79 Z " fill="rgb(255,255,255)"/><path d=" M 798.32 325.23 L 798.32 325.23 Q 801.31 325.23 802.675 326.53 L 802.675 326.53 L 802.675 326.53 Q 804.04 327.83 804.04 329.91 L 804.04 329.91 L 804.04 329.91 Q 804.04 333.29 802.025 335.89 L 802.025 335.89 L 802.025 335.89 Q 800.01 338.49 795.72 338.62 L 795.72 338.62 L 795.72 338.62 Q 785.32 338.88 777.26 337.06 L 777.26 337.06 L 777.26 337.06 Q 768.03 356.43 754.965 369.235 L 754.965 369.235 L 754.965 369.235 Q 741.9 382.04 728.77 382.04 L 728.77 382.04 L 728.77 382.04 Q 715.25 382.04 708.62 366.31 L 708.62 366.31 L 708.62 366.31 Q 701.99 350.58 701.99 323.8 L 701.99 323.8 L 701.99 323.8 Q 701.99 300.92 705.24 282.72 L 705.24 282.72 L 705.24 282.72 Q 706.41 275.96 708.555 273.555 L 708.555 273.555 L 708.555 273.555 Q 710.7 271.15 715.9 271.15 L 715.9 271.15 L 715.9 271.15 Q 724.48 271.15 724.48 278.56 L 724.48 278.56 L 724.48 278.56 Q 724.48 279.34 724.22 281.42 L 724.22 281.42 L 724.22 281.42 Q 720.32 304.82 720.32 323.8 L 720.32 323.8 L 720.32 323.8 Q 720.32 343.69 723.635 354.025 L 723.635 354.025 L 723.635 354.025 Q 726.95 364.36 733.58 364.36 L 733.58 364.36 L 733.58 364.36 Q 740.34 364.36 748.27 355 L 748.27 355 L 748.27 355 Q 756.2 345.64 762.83 331.47 L 762.83 331.47 L 762.83 331.47 Q 754.9 326.53 750.87 318.665 L 750.87 318.665 L 750.87 318.665 Q 746.84 310.8 746.84 300.53 L 746.84 300.53 L 746.84 300.53 Q 746.84 290.26 750.025 283.175 L 750.025 283.175 L 750.025 283.175 Q 753.21 276.09 758.735 272.58 L 758.735 272.58 L 758.735 272.58 Q 764.26 269.07 771.02 269.07 L 771.02 269.07 L 771.02 269.07 Q 779.34 269.07 784.215 275.05 L 784.215 275.05 L 784.215 275.05 Q 789.09 281.03 789.09 291.43 L 789.09 291.43 L 789.09 291.43 Q 789.09 306.38 782.59 324.06 L 782.59 324.06 L 782.59 324.06 Q 789.48 325.23 798.32 325.23 L 798.32 325.23 L 798.32 325.23 Z  M 759.97 299.62 L 759.97 299.62 Q 759.97 312.36 768.16 318.47 L 768.16 318.47 L 768.16 318.47 Q 773.23 303.91 773.23 294.42 L 773.23 294.42 L 773.23 294.42 Q 773.23 288.96 771.8 286.425 L 771.8 286.425 L 771.8 286.425 Q 770.37 283.89 767.9 283.89 L 767.9 283.89 L 767.9 283.89 Q 764.39 283.89 762.18 287.985 L 762.18 287.985 L 762.18 287.985 Q 759.97 292.08 759.97 299.62 L 759.97 299.62 L 759.97 299.62 Z  M 857.73 341.48 L 857.73 341.48 Q 859.42 341.48 860.33 343.17 L 860.33 343.17 L 860.33 343.17 Q 861.24 344.86 861.24 347.46 L 861.24 347.46 L 861.24 347.46 Q 861.24 353.7 857.47 354.87 L 857.47 354.87 L 857.47 354.87 Q 849.67 357.6 840.31 357.99 L 840.31 357.99 L 840.31 357.99 Q 837.84 368.91 830.56 375.475 L 830.56 375.475 L 830.56 375.475 Q 823.28 382.04 814.05 382.04 L 814.05 382.04 L 814.05 382.04 Q 806.25 382.04 800.725 378.27 L 800.725 378.27 L 800.725 378.27 Q 795.2 374.5 792.34 368.26 L 792.34 368.26 L 792.34 368.26 Q 789.48 362.02 789.48 354.74 L 789.48 354.74 L 789.48 354.74 Q 789.48 344.86 793.25 337.125 L 793.25 337.125 L 793.25 337.125 Q 797.02 329.39 803.65 325.035 L 803.65 325.035 L 803.65 325.035 Q 810.28 320.68 818.34 320.68 L 818.34 320.68 L 818.34 320.68 Q 828.22 320.68 834.265 327.505 L 834.265 327.505 L 834.265 327.505 Q 840.31 334.33 841.35 344.34 L 841.35 344.34 L 841.35 344.34 Q 847.46 343.95 855.91 341.74 L 855.91 341.74 L 855.91 341.74 Q 856.95 341.48 857.73 341.48 L 857.73 341.48 L 857.73 341.48 Z  M 815.09 368.26 L 815.09 368.26 Q 819.25 368.26 822.305 364.88 L 822.305 364.88 L 822.305 364.88 Q 825.36 361.5 826.4 355.13 L 826.4 355.13 L 826.4 355.13 Q 822.37 352.4 820.225 347.98 L 820.225 347.98 L 820.225 347.98 Q 818.08 343.56 818.08 338.62 L 818.08 338.62 L 818.08 338.62 Q 818.08 336.54 818.47 334.46 L 818.47 334.46 L 817.82 334.46 L 817.82 334.46 Q 812.62 334.46 809.175 339.465 L 809.175 339.465 L 809.175 339.465 Q 805.73 344.47 805.73 353.57 L 805.73 353.57 L 805.73 353.57 Q 805.73 360.72 808.525 364.49 L 808.525 364.49 L 808.525 364.49 Q 811.32 368.26 815.09 368.26 L 815.09 368.26 L 815.09 368.26 Z  M 911.29 352.4 L 911.29 352.4 Q 912.98 352.4 913.955 353.96 L 913.955 353.96 L 913.955 353.96 Q 914.93 355.52 914.93 358.25 L 914.93 358.25 L 914.93 358.25 Q 914.93 363.45 912.46 366.31 L 912.46 366.31 L 912.46 366.31 Q 906.87 373.2 900.24 377.62 L 900.24 377.62 L 900.24 377.62 Q 893.61 382.04 885.03 382.04 L 885.03 382.04 L 885.03 382.04 Q 858.51 382.04 858.51 344.73 L 858.51 344.73 L 858.51 344.73 Q 858.51 339.01 858.9 333.16 L 858.9 333.16 L 853.83 333.16 L 853.83 333.16 Q 849.93 333.16 848.565 331.73 L 848.565 331.73 L 848.565 331.73 Q 847.2 330.3 847.2 327.18 L 847.2 327.18 L 847.2 327.18 Q 847.2 319.9 853.05 319.9 L 853.05 319.9 L 860.46 319.9 L 860.46 319.9 Q 862.67 305.6 867.22 293.77 L 867.22 293.77 L 867.22 293.77 Q 871.77 281.94 878.205 274.92 L 878.205 274.92 L 878.205 274.92 Q 884.64 267.9 892.05 267.9 L 892.05 267.9 L 892.05 267.9 Q 897.51 267.9 900.63 272.71 L 900.63 272.71 L 900.63 272.71 Q 903.75 277.52 903.75 284.8 L 903.75 284.8 L 903.75 284.8 Q 903.75 304.95 886.85 319.9 L 886.85 319.9 L 901.41 319.9 L 901.41 319.9 Q 903.49 319.9 904.4 320.81 L 904.4 320.81 L 904.4 320.81 Q 905.31 321.72 905.31 324.19 L 905.31 324.19 L 905.31 324.19 Q 905.31 333.16 890.62 333.16 L 890.62 333.16 L 874.76 333.16 L 874.76 333.16 Q 874.5 339.66 874.5 343.3 L 874.5 343.3 L 874.5 343.3 Q 874.5 356.82 877.685 362.28 L 877.685 362.28 L 877.685 362.28 Q 880.87 367.74 887.76 367.74 L 887.76 367.74 L 887.76 367.74 Q 893.35 367.74 897.64 364.36 L 897.64 364.36 L 897.64 364.36 Q 901.93 360.98 907.78 354.22 L 907.78 354.22 L 907.78 354.22 Q 909.34 352.4 911.29 352.4 L 911.29 352.4 L 911.29 352.4 Z  M 888.54 280.38 L 888.54 280.38 Q 886.59 280.38 884.185 285.255 L 884.185 285.255 L 884.185 285.255 Q 881.78 290.13 879.635 298.775 L 879.635 298.775 L 879.635 298.775 Q 877.49 307.42 876.06 317.95 L 876.06 317.95 L 876.06 317.95 Q 883.73 311.32 887.565 303.065 L 887.565 303.065 L 887.565 303.065 Q 891.4 294.81 891.4 288.05 L 891.4 288.05 L 891.4 288.05 Q 891.4 280.38 888.54 280.38 L 888.54 280.38 L 888.54 280.38 Z  M 962.38 352.4 L 962.38 352.4 Q 964.07 352.4 965.045 353.96 L 965.045 353.96 L 965.045 353.96 Q 966.02 355.52 966.02 358.25 L 966.02 358.25 L 966.02 358.25 Q 966.02 363.45 963.55 366.31 L 963.55 366.31 L 963.55 366.31 Q 958.74 372.16 949.965 377.1 L 949.965 377.1 L 949.965 377.1 Q 941.19 382.04 931.18 382.04 L 931.18 382.04 L 931.18 382.04 Q 917.53 382.04 909.99 374.63 L 909.99 374.63 L 909.99 374.63 Q 902.45 367.22 902.45 354.35 L 902.45 354.35 L 902.45 354.35 Q 902.45 345.38 906.22 337.645 L 906.22 337.645 L 906.22 337.645 Q 909.99 329.91 916.685 325.36 L 916.685 325.36 L 916.685 325.36 Q 923.38 320.81 931.83 320.81 L 931.83 320.81 L 931.83 320.81 Q 939.37 320.81 943.92 325.295 L 943.92 325.295 L 943.92 325.295 Q 948.47 329.78 948.47 337.45 L 948.47 337.45 L 948.47 337.45 Q 948.47 346.42 942.035 352.855 L 942.035 352.855 L 942.035 352.855 Q 935.6 359.29 920.26 363.06 L 920.26 363.06 L 920.26 363.06 Q 923.51 369.04 932.61 369.04 L 932.61 369.04 L 932.61 369.04 Q 938.46 369.04 945.935 364.945 L 945.935 364.945 L 945.935 364.945 Q 953.41 360.85 958.87 354.22 L 958.87 354.22 L 958.87 354.22 Q 960.43 352.4 962.38 352.4 L 962.38 352.4 L 962.38 352.4 Z  M 929.62 333.55 L 929.62 333.55 Q 924.81 333.55 921.495 339.14 L 921.495 339.14 L 921.495 339.14 Q 918.18 344.73 918.18 352.66 L 918.18 352.66 L 918.18 352.92 L 918.18 352.92 Q 925.85 351.1 930.27 347.46 L 930.27 347.46 L 930.27 347.46 Q 934.69 343.82 934.69 339.01 L 934.69 339.01 L 934.69 339.01 Q 934.69 336.54 933.325 335.045 L 933.325 335.045 L 933.325 335.045 Q 931.96 333.55 929.62 333.55 L 929.62 333.55 L 929.62 333.55 Z " fill="rgb(255,255,255)"/><rect x="980" y="368" width="8" height="8" transform="matrix(1,0,0,1,0,0)" fill="rgb(235,91,242)"/></g></g></svg>