<?xml version="1.0" encoding="UTF-8" standalone="no"?><!-- Generator: Gravit.io --><svg xmlns="http://www.w3.org/2000/svg" xmlns:xlink="http://www.w3.org/1999/xlink" style="isolation:isolate" viewBox="0 0 60 60" width="60pt" height="60pt"><defs><clipPath id="_clipPath_VRJaooHkBsQjncwN8RM6wsqgz3Qfec5V"><rect width="60" height="60"/></clipPath></defs><g clip-path="url(#_clipPath_VRJaooHkBsQjncwN8RM6wsqgz3Qfec5V)"><path d=" M 3 2.312 L 11.496 2.312 L 16.752 19.844 L 21.972 2.312 L 30.468 2.312 L 21.9 27.8 L 11.568 27.8 L 3 2.312 L 3 2.312 Z " fill="rgb(184,0,0)"/><path d=" M 43.22 1.88 L 43.22 1.88 Q 46.82 1.88 49.808 3.554 L 49.808 3.554 L 49.808 3.554 Q 52.796 5.228 54.542 8.216 L 54.542 8.216 L 54.542 8.216 Q 56.288 11.204 56.288 14.948 L 56.288 14.948 L 56.288 14.948 Q 56.288 18.692 54.542 21.68 L 54.542 21.68 L 54.542 21.68 Q 52.796 24.668 49.79 26.36 L 49.79 26.36 L 49.79 26.36 Q 46.784 28.052 43.22 28.052 L 43.22 28.052 L 43.22 28.052 Q 39.62 28.052 36.614 26.36 L 36.614 26.36 L 36.614 26.36 Q 33.608 24.668 31.844 21.68 L 31.844 21.68 L 31.844 21.68 Q 30.08 18.692 30.08 14.948 L 30.08 14.948 L 30.08 14.948 Q 30.08 11.204 31.844 8.216 L 31.844 8.216 L 31.844 8.216 Q 33.608 5.228 36.614 3.554 L 36.614 3.554 L 36.614 3.554 Q 39.62 1.88 43.22 1.88 L 43.22 1.88 L 43.22 1.88 Z  M 43.22 9.26 L 43.22 9.26 Q 40.808 9.26 39.512 10.79 L 39.512 10.79 L 39.512 10.79 Q 38.216 12.32 38.216 14.948 L 38.216 14.948 L 38.216 14.948 Q 38.216 17.54 39.512 19.07 L 39.512 19.07 L 39.512 19.07 Q 40.808 20.6 43.22 20.6 L 43.22 20.6 L 43.22 20.6 Q 45.596 20.6 46.892 19.07 L 46.892 19.07 L 46.892 19.07 Q 48.188 17.54 48.188 14.948 L 48.188 14.948 L 48.188 14.948 Q 48.188 12.32 46.892 10.79 L 46.892 10.79 L 46.892 10.79 Q 45.596 9.26 43.22 9.26 L 43.22 9.26 L 43.22 9.26 Z " fill="rgb(184,0,0)"/><path d=" M 5.86 31.312 L 27.316 31.312 L 27.316 37.648 L 20.548 37.648 L 20.548 56.8 L 12.556 56.8 L 12.556 37.648 L 5.86 37.648 L 5.86 31.312 L 5.86 31.312 Z " fill="rgb(184,0,0)"/><path d=" M 51.292 37.648 L 42.292 37.648 L 42.292 40.816 L 50.212 40.816 L 50.212 46.828 L 42.292 46.828 L 42.292 50.428 L 51.292 50.428 L 51.292 56.8 L 34.3 56.8 L 34.3 31.312 L 51.292 31.312 L 51.292 37.648 L 51.292 37.648 Z " fill="rgb(184,0,0)"/></g></svg>